<svg width="40" height="44" viewBox="0 0 40 44" xmlns="http://www.w3.org/2000/svg" xmlns:xlink="http://www.w3.org/1999/xlink">
    <title>
        export
    </title>
    <defs>
        <linearGradient x1="50%" y1="0%" x2="50%" y2="100%" id="b">
            <stop stop-color="#9895F5" offset="0%"/>
            <stop stop-color="#5CB8E6" offset="100%"/>
        </linearGradient>
        <rect id="a" y="2" width="40" height="40" rx="1"/>
        <mask id="c" x="0" y="0" width="40" height="40" fill="#fff">
            <use xlink:href="#a"/>
        </mask>
    </defs>
    <g fill="none" fill-rule="evenodd">
        <use stroke="url(#b)" mask="url(#c)" stroke-width="2" fill="#FFF" xlink:href="#a"/>
        <path fill="#5CB8E6" d="M3 5h1v1H3zM5 5h1v1H5zM7 5h1v1H7z"/>
        <path d="M9.102 28.35c0-.208.066-.38.199-.518.132-.138.318-.207.558-.207.244 0 .432.069.564.207.133.138.2.31.2.518a.693.693 0 0 1-.2.508c-.132.134-.32.201-.564.201a.9.9 0 0 1-.32-.054.658.658 0 0 1-.387-.376.752.752 0 0 1-.05-.279zm5.833-4.345l1.644-2.825h1.568l-2.363 3.878L18.2 29h-1.585l-1.68-2.868L13.248 29h-1.58l2.423-3.942-2.369-3.878h1.569l1.643 2.825zm5.629 3.91h3.55V29h-4.909v-7.82h1.359v6.735zm8.68-.93a1.19 1.19 0 0 0-.07-.42.835.835 0 0 0-.255-.342 2.12 2.12 0 0 0-.51-.298 7.847 7.847 0 0 0-.836-.298 8.046 8.046 0 0 1-1.031-.381 3.562 3.562 0 0 1-.814-.5 2.139 2.139 0 0 1-.534-.655 1.808 1.808 0 0 1-.194-.849c0-.315.068-.605.202-.87s.323-.494.567-.687c.243-.194.535-.344.875-.452.34-.107.716-.16 1.128-.16.44 0 .836.063 1.187.19.35.127.647.3.889.518a2.23 2.23 0 0 1 .75 1.681h-1.354c0-.19-.03-.364-.089-.523-.06-.16-.15-.297-.271-.414a1.248 1.248 0 0 0-.462-.271 2.024 2.024 0 0 0-.66-.097c-.24 0-.448.027-.624.08a1.248 1.248 0 0 0-.438.226.89.89 0 0 0-.257.344 1.1 1.1 0 0 0-.084.43c0 .29.137.532.411.725.274.193.692.372 1.254.537.44.129.822.272 1.144.43.323.157.59.335.803.534.213.199.372.423.476.672.104.248.156.529.156.84 0 .33-.066.626-.197.889-.13.263-.316.487-.558.671a2.622 2.622 0 0 1-.878.425 4.169 4.169 0 0 1-1.15.147c-.376 0-.746-.05-1.112-.153a3.144 3.144 0 0 1-.982-.462 2.407 2.407 0 0 1-.701-.77c-.178-.308-.266-.67-.266-1.085h1.359c0 .247.044.459.131.636.088.177.208.322.36.435.152.113.332.195.54.247.208.052.431.078.671.078.473 0 .828-.096 1.066-.287a.927.927 0 0 0 .358-.76z" fill="#879FF0"/>
        <path fill="#8C9CF1" d="M0 8h40v1H0z"/>
    </g>
</svg>
