<svg xmlns="http://www.w3.org/2000/svg" xmlns:xlink="http://www.w3.org/1999/xlink" style="display:none;">
  <symbol id="logo-small" viewBox="0 0 33 33">
    <path d="M0 3.001A2.995 2.995 0 0 1 3.001 0H30A2.995 2.995 0 0 1 33 3.001V30A2.995 2.995 0 0 1 29.999 33H3A2.995 2.995 0 0 1 0 29.999V3zM16.27 23c3.952 0 6.707-2.508 6.707-6.346 0-3.8-2.755-6.327-6.726-6.327h-4.997V23h5.016zm-.019-2.375h-2.299v-7.923h2.318c2.584 0 3.952 1.729 3.952 3.952 0 2.166-1.463 3.971-3.971 3.971z"/>
  </symbol>

  <symbol id="logo-full" viewBox="0 0 102 33">
    <path d="M0 3.001A2.995 2.995 0 0 1 3.001 0H30A2.995 2.995 0 0 1 33 3.001V30A2.995 2.995 0 0 1 29.999 33H3A2.995 2.995 0 0 1 0 29.999V3zM16.27 23c3.952 0 6.707-2.508 6.707-6.346 0-3.8-2.755-6.327-6.726-6.327h-4.997V23h5.016zm-.019-2.375h-2.299v-7.923h2.318c2.584 0 3.952 1.729 3.952 3.952 0 2.166-1.463 3.971-3.971 3.971zM43.795 20v-7.82h2.31c.69 0 1.304.154 1.84.462.534.308.949.744 1.242 1.31.294.566.44 1.214.44 1.944v.393c0 .74-.147 1.392-.442 1.955a3.112 3.112 0 0 1-1.262 1.3c-.546.304-1.172.456-1.878.456h-2.25zm1.359-6.725v5.64h.886c.713 0 1.26-.223 1.64-.669.382-.445.577-1.086.584-1.92v-.435c0-.849-.185-1.497-.554-1.944-.368-.448-.904-.672-1.606-.672h-.95zm11.398 3.234H53.34v2.406h3.755V20H51.98v-7.82h5.076v1.095H53.34v2.16h3.212v1.074zm4.008.585V20h-1.359v-7.82h2.992c.874 0 1.567.227 2.081.682.514.455.77 1.056.77 1.805 0 .766-.25 1.362-.754 1.788-.503.426-1.207.64-2.113.64H60.56zm0-1.09h1.633c.483 0 .852-.114 1.106-.341.255-.228.382-.556.382-.986 0-.422-.13-.76-.387-1.012-.258-.253-.612-.382-1.064-.39h-1.67v2.729zm11.243.505H68.59v2.406h3.754V20h-5.113v-7.82h5.076v1.095H68.59v2.16h3.212v1.074zM80.655 20h-1.359l-3.485-5.548V20h-1.36v-7.82h1.36l3.496 5.57v-5.57h1.348V20zm2.606 0v-7.82h2.31c.69 0 1.304.154 1.84.462.535.308.95.744 1.243 1.31.293.566.44 1.214.44 1.944v.393c0 .74-.147 1.392-.443 1.955a3.112 3.112 0 0 1-1.262 1.3c-.546.304-1.172.456-1.877.456h-2.25zm1.36-6.725v5.64h.885c.713 0 1.26-.223 1.641-.669.382-.445.576-1.086.583-1.92v-.435c0-.849-.184-1.497-.553-1.944-.37-.448-.904-.672-1.606-.672h-.95zM97.65 20h-1.359l-3.485-5.548V20h-1.36v-7.82h1.36l3.496 5.57v-5.57h1.348V20zm2.751-5.5l-.666-.414c.323-.469.49-.965.5-1.487v-.849h1.144v.741c0 .369-.094.74-.282 1.115-.188.374-.42.672-.696.894z"/>
  </symbol>
</svg>
